<svg width="32" height="32" viewBox="0 0 32 32" fill="none" xmlns="http://www.w3.org/2000/svg">
<path d="M29.1875 16V26C29.1842 27.3251 28.6564 28.595 27.7194 29.5319C26.7824 30.4689 25.5126 30.9967 24.1875 31H17C16.7348 31 16.4804 30.8947 16.2929 30.7072C16.1054 30.5196 16 30.2653 16 30C16 29.7348 16.1054 29.4805 16.2929 29.2929C16.4804 29.1054 16.7348 29 17 29H24.1875C24.9821 28.9968 25.7433 28.6796 26.3052 28.1177C26.8671 27.5558 27.1842 26.7947 27.1875 26V25.825C26.8668 25.9407 26.5284 25.9999 26.1875 26H24.1875C23.3918 26 22.6288 25.684 22.0662 25.1214C21.5036 24.5588 21.1875 23.7957 21.1875 23V18C21.1875 17.2044 21.5036 16.4413 22.0662 15.8787C22.6288 15.3161 23.3918 15 24.1875 15H27.1375C26.8868 12.2528 25.613 9.70008 23.5686 7.84788C21.5243 5.99567 18.8586 4.97923 16.1 5.00005H16.0875C13.3273 4.97343 10.6584 5.98788 8.61283 7.84121C6.56722 9.69453 5.29509 12.2506 5.05 15H8C8.79464 15.0033 9.55579 15.3205 10.1177 15.8824C10.6796 16.4443 10.9967 17.2054 11 18V23C10.9967 23.7947 10.6796 24.5558 10.1177 25.1177C9.55579 25.6796 8.79464 25.9968 8 26H6C5.20536 25.9968 4.44421 25.6796 3.88231 25.1177C3.32042 24.5558 3.00329 23.7947 3 23V16C2.99996 14.2855 3.33909 12.5878 3.99787 11.0049C4.65665 9.42191 5.62205 7.9849 6.8385 6.77659C8.05494 5.56827 9.49839 4.61253 11.0857 3.96439C12.6731 3.31625 14.373 2.98851 16.0875 3.00005H16.1875C19.6343 3.00336 22.939 4.37406 25.3762 6.81132C27.8135 9.24857 29.1842 12.5533 29.1875 16Z" fill="url(#paint0_linear_132_589)"/>
<defs>
<linearGradient id="paint0_linear_132_589" x1="16.0937" y1="2.99976" x2="16.0937" y2="31" gradientUnits="userSpaceOnUse">
<stop stop-color="#14A800"/>
<stop offset="1" stop-color="#61DE56"/>
</linearGradient>
</defs>
</svg>
