<svg width="27" height="27" viewBox="0 0 27 27" fill="none" xmlns="http://www.w3.org/2000/svg">
<path d="M19.9997 12.4999C19.9997 13.9833 19.5598 15.4334 18.7357 16.6667C17.9116 17.9001 16.7403 18.8614 15.3698 19.429C13.9994 19.9967 12.4914 20.1452 11.0365 19.8558C9.58167 19.5664 8.2453 18.8521 7.1964 17.8032C6.14751 16.7544 5.4332 15.418 5.14382 13.9631C4.85443 12.5083 5.00295 11.0003 5.57061 9.62982C6.13827 8.25938 7.09956 7.08804 8.33293 6.26393C9.5663 5.43982 11.0163 4.99995 12.4997 4.99995C14.4888 4.99995 16.3965 5.79013 17.803 7.19665C19.2095 8.60317 19.9997 10.5108 19.9997 12.4999ZM26.6997 26.7124C26.513 26.8963 26.2617 26.9995 25.9997 26.9999C25.7342 26.9988 25.4792 26.8959 25.2872 26.7124L19.8872 21.2999C17.6129 23.2102 14.689 24.1687 11.7252 23.9756C8.76142 23.7824 5.98661 22.4525 3.97952 20.2632C1.97242 18.074 0.887997 15.1943 0.952422 12.225C1.01685 9.25558 2.22514 6.42571 4.3253 4.32555C6.42547 2.22539 9.25534 1.01709 12.2247 0.952666C15.1941 0.888241 18.0737 1.97266 20.263 3.97976C22.4523 5.98686 23.7822 8.76166 23.9753 11.7255C24.1685 14.6892 23.21 17.6132 21.2997 19.8874L26.6997 25.2874C26.7942 25.3805 26.8692 25.4914 26.9204 25.6137C26.9717 25.7361 26.998 25.8673 26.998 25.9999C26.998 26.1326 26.9717 26.2638 26.9204 26.3862C26.8692 26.5085 26.7942 26.6194 26.6997 26.7124ZM12.4997 21.9999C14.3786 21.9999 16.2154 21.4428 17.7776 20.3989C19.3399 19.355 20.5575 17.8713 21.2766 16.1354C21.9956 14.3995 22.1837 12.4894 21.8172 10.6466C21.4506 8.80377 20.5458 7.11103 19.2172 5.78243C17.8886 4.45384 16.1959 3.54905 14.3531 3.18249C12.5102 2.81593 10.6001 3.00406 8.86421 3.72309C7.12831 4.44213 5.64462 5.65977 4.60074 7.22203C3.55687 8.7843 2.99971 10.621 2.99971 12.4999C3.00301 15.0185 4.00496 17.4329 5.78584 19.2138C7.56672 20.9947 9.98116 21.9966 12.4997 21.9999Z" fill="url(#paint0_linear_132_585)"/>
<defs>
<linearGradient id="paint0_linear_132_585" x1="13.9739" y1="0.949951" x2="13.9739" y2="26.9999" gradientUnits="userSpaceOnUse">
<stop stop-color="#14A800"/>
<stop offset="1" stop-color="#61DE56"/>
</linearGradient>
</defs>
</svg>
