<svg width="28" height="19" viewBox="0 0 28 19" fill="none" xmlns="http://www.w3.org/2000/svg">
<path d="M28 14.0001V17.0001C28 17.5305 27.7893 18.0392 27.4142 18.4143C27.0391 18.7894 26.5304 19.0001 26 19.0001H12.4375C12.3446 19.0001 12.2536 18.9742 12.1746 18.9254C12.0956 18.8766 12.0318 18.8068 11.9903 18.7237C11.9488 18.6406 11.9312 18.5477 11.9395 18.4552C11.9479 18.3627 11.9818 18.2744 12.0375 18.2001L20.25 7.5001C20.4137 7.2924 20.4909 7.02944 20.4652 6.7662C20.4396 6.50296 20.3132 6.25982 20.1125 6.0876C20.0098 6.0012 19.8905 5.93666 19.762 5.89791C19.6335 5.85916 19.4984 5.84702 19.365 5.86223C19.2317 5.87744 19.1028 5.91968 18.9863 5.98637C18.8698 6.05305 18.7681 6.14279 18.6875 6.2501L9.05 18.8001C9.00608 18.862 8.94797 18.9124 8.88056 18.9472C8.81314 18.982 8.73837 19.0001 8.6625 19.0001H2C1.46957 19.0001 0.960859 18.7894 0.585786 18.4143C0.210714 18.0392 0 17.5305 0 17.0001V14.1376C0.00237824 13.2059 0.09447 12.2766 0.275 11.3626L3.1125 12.1251L3.375 12.1501C3.60122 12.1502 3.8208 12.0737 3.99788 11.9329C4.17497 11.7922 4.2991 11.5955 4.35 11.3751C4.40645 11.1167 4.35959 10.8466 4.21944 10.6223C4.07928 10.3981 3.85696 10.2376 3.6 10.1751L0.8 9.4251C2.625 4.2501 7.3625 0.437598 13 0.0375977V2.9626C12.9959 3.22209 13.0904 3.47348 13.2644 3.66603C13.4384 3.85859 13.6789 3.97798 13.9375 4.0001C14.074 4.00864 14.2108 3.98911 14.3394 3.94269C14.468 3.89628 14.5858 3.82398 14.6854 3.73025C14.7849 3.63653 14.8642 3.52338 14.9184 3.39779C14.9725 3.2722 15.0003 3.13685 15 3.0001V0.0375977C18.354 0.271436 21.5105 1.70982 23.8875 4.0876C25.3913 5.58738 26.5365 7.40777 27.2375 9.4126L24.4 10.1751C24.143 10.2376 23.9207 10.3981 23.7806 10.6223C23.6404 10.8466 23.5935 11.1167 23.65 11.3751C23.7009 11.5955 23.825 11.7922 24.0021 11.9329C24.1792 12.0737 24.3988 12.1502 24.625 12.1501L24.8875 12.1251L27.75 11.3501C27.9155 12.2237 27.9992 13.1109 28 14.0001Z" fill="url(#paint0_linear_132_578)"/>
<defs>
<linearGradient id="paint0_linear_132_578" x1="14" y1="0.0375977" x2="14" y2="19.0001" gradientUnits="userSpaceOnUse">
<stop stop-color="#14A800"/>
<stop offset="1" stop-color="#61DE56"/>
</linearGradient>
</defs>
</svg>
